<?xml version="1.0" encoding="UTF-8" standalone="no"?>
<svg
   id="Layer_1"
   version="1.1"
   viewBox="82 82 864 196"
   xmlns="http://www.w3.org/2000/svg"
   xmlns:svg="http://www.w3.org/2000/svg">
  <!-- Generator: Adobe Illustrator 29.6.1, SVG Export Plug-In . SVG Version: 2.1.1 Build 9)  -->
  <defs
     id="defs4">
    <style
       id="style2">
      .st0 {
        fill: #fff;
      }

      .st1 {
        fill: #fff;
        font-family: Poppins-Medium, Poppins;
        font-size: 133.27px;
        font-weight: 500;
      }

      .st2 {
        fill: #6dc8bf;
      }
    </style>
  </defs>
  <rect
     class="st2"
     x="486.78"
     y="85.78"
     width="453.31"
     height="146.02"
     rx="24.91"
     ry="24.91"
     id="rect6" />
  <g
     aria-label="creati"
     transform="translate(86.05,210.97)"
     id="text10"
     class="st1"
     style="font-weight:500;font-size:133.27px;font-family:Poppins-Medium, Poppins;fill:#fff">
    <path
       d="m 65.008171,-70.083884 v 11.192598 q -5.075713,-2.79815 -10.216499,-4.164688 -5.075713,-1.431611 -10.281573,-1.431611 -11.648111,0 -18.090362,7.41835 -6.442251,7.353276 -6.442251,20.693291 0,13.340016 6.442251,20.758365 6.442251,7.353277 18.090362,7.353277 5.20586,0 10.281573,-1.3665382 5.140786,-1.4316118 10.216499,-4.2297608 v 11.0624515 q -5.01064,2.34263679 -10.411719,3.51395519 -5.336006,1.17131841 -11.387818,1.17131841 -16.463531,0 -26.159444,-10.3466459 -9.6959134,-10.3466462 -9.6959134,-27.9164222 0,-17.830068 9.7609864,-28.046568 9.82606,-10.216499 26.87525,-10.216499 5.531226,0 10.802159,1.171318 5.270932,1.106245 10.216499,3.383809 z"
       id="path29" />
    <path
       d="m 128.06415,-61.689436 q -2.01727,-1.171318 -4.42498,-1.691904 -2.34264,-0.585659 -5.20586,-0.585659 -10.15143,0 -15.61758,6.637471 -5.40108,6.572397 -5.40108,18.936314 V 0 H 85.3761 v -72.882034 h 12.03855 v 11.322745 q 3.77425,-6.637471 9.82606,-9.82606 6.05181,-3.253662 14.70655,-3.253662 1.23639,0 2.73308,0.19522 1.49668,0.130146 3.31873,0.455512 z"
       id="path31" />
    <path
       d="m 200.03515,-39.434386 v 5.856592 h -55.05196 q 0.78088,12.363916 7.41835,18.871241 6.70254,6.442251 18.61095,6.442251 6.89776,0 13.34001,-1.6919044 6.50733,-1.6919046 12.8845,-5.0757126 v 11.3227441 q -6.44225,2.73307624 -13.20986,4.16468761 -6.76762,1.43161139 -13.73046,1.43161139 -17.43963,0 -27.65613,-10.1514261 -10.15142,-10.151426 -10.15142,-27.460909 0,-17.895142 9.63084,-28.371935 9.69591,-10.541865 26.09437,-10.541865 14.70655,0 23.23114,9.500693 8.58967,9.435621 8.58967,25.703932 z m -11.97347,-3.513955 q -0.13015,-9.82606 -5.53123,-15.682652 -5.33601,-5.856592 -14.18597,-5.856592 -10.02128,0 -16.07309,5.661372 -5.98674,5.661372 -6.89776,15.942945 z"
       id="path33" />
    <path
       d="m 252.80956,-36.636237 q -14.51133,0 -20.10763,3.318736 -5.5963,3.318735 -5.5963,11.322744 0,6.377178 4.16469,10.151427 4.22976,3.7091745 11.45289,3.7091745 9.9562,0 15.94294,-7.0279105 6.05181,-7.092984 6.05181,-18.806168 v -2.668003 z m 23.88188,-4.945566 V 0 h -11.97348 v -11.062452 q -4.09961,6.6374714 -10.21649,9.8260604 -6.11689,3.1235157 -14.96685,3.1235157 -11.1926,0 -17.83007,-6.2470315 -6.5724,-6.3121046 -6.5724,-16.8539706 0,-12.298843 8.19923,-18.545874 8.2643,-6.247032 24.59769,-6.247032 h 16.78889 v -1.171318 q 0,-8.264302 -5.46615,-12.754356 -5.40108,-4.555127 -15.22714,-4.555127 -6.24703,0 -12.16869,1.496685 -5.92167,1.496684 -11.38782,4.490053 v -11.062451 q 6.5724,-2.537857 12.75435,-3.774248 6.18196,-1.301465 12.03855,-1.301465 15.8128,0 23.62159,8.199229 7.80879,8.199228 7.80879,24.857979 z"
       id="path35" />
    <path
       d="m 313.19754,-93.575325 v 20.693291 h 24.66276 v 9.305474 h -24.66276 v 39.564533 q 0,8.915034 2.40771,11.452891 2.47278,2.537856 9.95621,2.537856 H 337.8603 V 0 h -12.29884 q -13.8606,0 -19.13154,-5.1407863 -5.27093,-5.2058597 -5.27093,-18.8712407 V -63.57656 h -8.78489 v -9.305474 h 8.78489 v -20.693291 z"
       id="path37" />
    <path
       d="M 353.60803,-72.882034 H 365.5815 V 0 h -11.97347 z m 0,-28.371936 h 11.97347 v 15.162068 h -11.97347 z"
       id="path39" />
  </g>
  <g
     id="g20">
    <path
       class="st0"
       d="m 646.34,113.14 -24.39,93.55 h -27.59 l -14.93,-61.57 -15.46,61.57 h -27.59 l -23.72,-93.55 h 24.39 l 13.46,68.1 16.66,-68.1 h 25.05 l 15.99,68.1 13.59,-68.1 h 24.52 z"
       id="path12" />
    <path
       class="st0"
       d="m 671.19,201.5 c -7.33,-4.09 -13.15,-9.79 -17.46,-17.12 -4.31,-7.33 -6.46,-15.57 -6.46,-24.72 0,-9.15 2.15,-17.37 6.46,-24.65 4.31,-7.28 10.13,-12.97 17.46,-17.06 7.33,-4.09 15.39,-6.13 24.19,-6.13 8.8,0 16.86,2.04 24.19,6.13 7.33,4.09 13.1,9.77 17.32,17.06 4.22,7.29 6.33,15.5 6.33,24.65 0,9.15 -2.13,17.39 -6.4,24.72 -4.26,7.33 -10.04,13.04 -17.33,17.12 -7.29,4.09 -15.33,6.13 -24.12,6.13 -8.79,0 -16.86,-2.04 -24.19,-6.13 z m 42.11,-22.12 c 4.49,-4.97 6.73,-11.55 6.73,-19.72 0,-8.17 -2.24,-14.86 -6.73,-19.79 -4.49,-4.93 -10.46,-7.4 -17.92,-7.4 -7.46,0 -13.57,2.45 -18.06,7.33 -4.49,4.89 -6.73,11.51 -6.73,19.86 0,8.35 2.24,14.86 6.73,19.79 4.49,4.93 10.5,7.4 18.06,7.4 7.56,0 13.44,-2.49 17.92,-7.46 z"
       id="path14" />
    <path
       class="st0"
       d="m 877.95,113.14 -24.39,93.55 h -27.59 l -14.93,-61.57 -15.46,61.57 h -27.59 l -23.72,-93.55 h 24.39 l 13.46,68.1 16.66,-68.1 h 25.05 l 15.99,68.1 13.59,-68.1 h 24.52 z"
       id="path16" />
    <path
       class="st0"
       d="m 890.94,204.23 c -2.53,-2.35 -3.8,-5.26 -3.8,-8.73 0,-3.47 1.27,-6.53 3.8,-8.93 2.53,-2.4 5.8,-3.6 9.8,-3.6 4,0 7.13,1.2 9.66,3.6 2.53,2.4 3.8,5.38 3.8,8.93 0,3.55 -1.27,6.38 -3.8,8.73 -2.53,2.36 -5.75,3.53 -9.66,3.53 -3.91,0 -7.26,-1.18 -9.8,-3.53 z m 21.79,-94.42 -2.67,63.83 h -19.32 l -2.67,-63.83 h 24.65 z"
       id="path18" />
  </g>
  <path
     class="st2"
     d="M394.46,247.74c-2.83,1.87-5.73,3.63-8.65,5.29-21.98,12.4-47.01,19.27-72.1,21.44-2.52.17-9.37.47-11.99.59-8.09.22-16.26-.32-24.27-1.41-22.38-3.02-63.89-19.81-89.26-43.67-.6-.56-.68-1.49-.19-2.15h0c.48-.66,1.37-.86,2.09-.47,35.94,19.31,66.62,32.3,118.8,30.14,28.19-1.16,56.18-6.01,82.76-15.44,3.57-1.26,5.97,3.6,2.81,5.68Z"
     id="path22" />
  <path
     class="st2"
     d="M371.41,234.97c-.7.27-1.24-.65-.67-1.13,8.55-7.17,19.95-10.98,33.03-9.63,3.53.4,6.64.91,9.92,1.85,2.68.77,4.47,3.31,4.29,6.09-.22,3.4-.78,6.51-1.59,9.96-3.04,12.42-10.14,21.7-19.37,27.38-.64.39-1.33-.41-.86-.99,6.23-7.56,10.08-17.36,10.79-28.24.19-2.87-1.68-5.5-4.44-6.29-10.81-3.08-21.68-2.62-31.1,1.01Z"
     id="path24" />
</svg>
